<svg width="512" height="512" xmlns="http://www.w3.org/2000/svg">
 <title/>

 <g>
  <title>background</title>
  <rect fill="none" id="canvas_background" height="514" width="514" y="-1" x="-1"/>
 </g>
 <g>
  <title>Layer 1</title>
  <path fill="#ffffff" id="svg_1" d="m364,450a15,15 0 0 1 -11.29,-5.12l-79.21,-90.54l-154.86,0a64.58,64.58 0 0 1 -64.5,-64.51l0,-177.32a64.58,64.58 0 0 1 64.5,-64.51l273,0a64.58,64.58 0 0 1 64.5,64.51l0,177.32a64.58,64.58 0 0 1 -64.5,64.51l-12.64,0l0,80.66a15,15 0 0 1 -15,15zm-245.36,-372a34.55,34.55 0 0 0 -34.5,34.51l0,177.32a34.55,34.55 0 0 0 34.5,34.51l161.66,0a15,15 0 0 1 11.29,5.12l57.41,65.63l0,-55.75a15,15 0 0 1 15,-15l27.59,0a34.55,34.55 0 0 0 34.5,-34.51l0,-177.32a34.55,34.55 0 0 0 -34.46,-34.51l-272.99,0z"/>
  <path fill="#ffffaa" id="svg_2" d="m199.63,264a15.13,15.13 0 0 1 -10.63,-4.39c-0.34,-0.35 -0.67,-0.72 -1,-1.1a14.34,14.34 0 0 1 -0.87,-1.18q-0.41,-0.61 -0.75,-1.26c-0.23,-0.43 -0.44,-0.88 -0.63,-1.33s-0.35,-0.92 -0.5,-1.38s-0.26,-1 -0.36,-1.43s-0.17,-1 -0.22,-1.45a14.66,14.66 0 0 1 -0.07,-1.48a14.33,14.33 0 0 1 0.07,-1.47c0.05,-0.49 0.13,-1 0.22,-1.46s0.22,-1 0.36,-1.42s0.31,-0.94 0.5,-1.39s0.4,-0.89 0.63,-1.32a14.6,14.6 0 0 1 0.75,-1.27c0.27,-0.4 0.56,-0.8 0.87,-1.18s0.65,-0.75 1,-1.1a15.15,15.15 0 0 1 12.08,-4.32c0.49,0.05 1,0.13 1.46,0.22s1,0.22 1.42,0.36s0.94,0.31 1.39,0.5s0.89,0.4 1.32,0.63s0.86,0.48 1.27,0.75s0.8,0.56 1.18,0.87s0.75,0.65 1.09,1s0.68,0.72 1,1.1s0.6,0.78 0.87,1.18a14.6,14.6 0 0 1 0.75,1.27q0.35,0.65 0.63,1.32c0.19,0.45 0.35,0.92 0.5,1.39s0.26,0.94 0.36,1.42s0.17,1 0.22,1.46s0.07,1 0.07,1.47s0,1 -0.07,1.48s-0.13,1 -0.22,1.45s-0.22,1 -0.36,1.43s-0.31,0.93 -0.5,1.38s-0.4,0.9 -0.63,1.33s-0.48,0.85 -0.75,1.26s-0.57,0.8 -0.87,1.18s-0.65,0.75 -1,1.1s-0.71,0.68 -1.09,1s-0.78,0.6 -1.18,0.87s-0.84,0.52 -1.27,0.75s-0.87,0.44 -1.32,0.63s-0.92,0.35 -1.39,0.5s-0.94,0.26 -1.42,0.36s-1,0.17 -1.46,0.22s-0.96,0.05 -1.45,0.05z"/>
  <path fill="#ffff00" id="svg_3" d="m310.64,264c-0.49,0 -1,0 -1.47,-0.07s-1,-0.13 -1.46,-0.22s-1,-0.22 -1.43,-0.36s-0.93,-0.31 -1.38,-0.5s-0.89,-0.4 -1.32,-0.63a14.6,14.6 0 0 1 -1.27,-0.75c-0.4,-0.27 -0.8,-0.56 -1.18,-0.87s-0.75,-0.65 -1.1,-1s-0.68,-0.72 -1,-1.1s-0.6,-0.78 -0.87,-1.18a14.6,14.6 0 0 1 -0.75,-1.27q-0.35,-0.65 -0.63,-1.32c-0.19,-0.45 -0.35,-0.92 -0.5,-1.38s-0.26,-1 -0.36,-1.43s-0.17,-1 -0.22,-1.45s-0.07,-1 -0.07,-1.48s0,-1 0.07,-1.48s0.13,-1 0.22,-1.45s0.22,-1 0.36,-1.43s0.31,-0.93 0.5,-1.38s0.4,-0.9 0.63,-1.33s0.48,-0.85 0.75,-1.26a14.34,14.34 0 0 1 0.87,-1.18c0.31,-0.38 0.65,-0.75 1,-1.1s0.72,-0.68 1.1,-1s0.78,-0.6 1.18,-0.87a14.6,14.6 0 0 1 1.27,-0.75q0.65,-0.34 1.32,-0.63c0.45,-0.19 0.92,-0.35 1.38,-0.5s1,-0.26 1.43,-0.36s1,-0.17 1.46,-0.22a16.15,16.15 0 0 1 2.95,0c0.48,0.05 1,0.13 1.45,0.22s1,0.22 1.43,0.36s0.93,0.31 1.38,0.5s0.89,0.4 1.32,0.63a14.6,14.6 0 0 1 1.27,0.75c0.4,0.27 0.8,0.56 1.18,0.87s0.75,0.65 1.1,1s0.68,0.72 1,1.1a14.34,14.34 0 0 1 0.87,1.18q0.4,0.62 0.75,1.26c0.23,0.43 0.44,0.88 0.63,1.33s0.35,0.92 0.5,1.38s0.26,1 0.36,1.43s0.17,1 0.22,1.45a15.68,15.68 0 0 1 0,3c-0.05,0.48 -0.13,1 -0.22,1.45s-0.22,1 -0.36,1.43s-0.31,0.93 -0.5,1.38s-0.4,0.89 -0.63,1.32a14.6,14.6 0 0 1 -0.75,1.27c-0.27,0.4 -0.56,0.8 -0.87,1.18s-0.65,0.75 -1,1.1s-0.72,0.68 -1.1,1s-0.78,0.6 -1.18,0.87a14.6,14.6 0 0 1 -1.27,0.75q-0.65,0.34 -1.32,0.63c-0.45,0.19 -0.92,0.35 -1.38,0.5s-0.95,0.26 -1.43,0.36s-1,0.17 -1.45,0.22s-0.99,0.03 -1.48,0.03z"/>
  <path fill="#ffff56" id="svg_4" d="m255.13,264a14.6,14.6 0 0 1 -1.47,-0.07c-0.49,-0.05 -1,-0.13 -1.46,-0.22s-0.95,-0.22 -1.42,-0.36s-0.93,-0.31 -1.38,-0.5s-0.9,-0.4 -1.33,-0.63a15.58,15.58 0 0 1 -2.45,-1.62c-0.38,-0.31 -0.75,-0.65 -1.09,-1a14.67,14.67 0 0 1 -1,-1.1c-0.31,-0.38 -0.61,-0.78 -0.88,-1.18a14.6,14.6 0 0 1 -0.75,-1.27q-0.34,-0.65 -0.63,-1.32c-0.18,-0.45 -0.35,-0.92 -0.49,-1.39a13.41,13.41 0 0 1 -0.36,-1.42a14.46,14.46 0 0 1 -0.29,-2.93a14.66,14.66 0 0 1 0.07,-1.48a14.51,14.51 0 0 1 0.22,-1.45a14.24,14.24 0 0 1 0.36,-1.43c0.14,-0.46 0.31,-0.93 0.49,-1.38s0.4,-0.89 0.63,-1.32a14.6,14.6 0 0 1 0.75,-1.27c0.27,-0.4 0.57,-0.8 0.88,-1.18a14.67,14.67 0 0 1 1,-1.1c0.34,-0.34 0.71,-0.68 1.09,-1a15.58,15.58 0 0 1 2.45,-1.62c0.43,-0.23 0.88,-0.44 1.33,-0.63s0.91,-0.35 1.38,-0.5s0.95,-0.26 1.42,-0.36s1,-0.17 1.46,-0.22a16.15,16.15 0 0 1 3,0c0.49,0.05 1,0.13 1.45,0.22s1,0.22 1.43,0.36s0.93,0.31 1.38,0.5s0.9,0.4 1.33,0.63s0.85,0.48 1.26,0.75a14.5,14.5 0 0 1 1.19,0.87c0.38,0.31 0.75,0.65 1.09,1a14.67,14.67 0 0 1 1,1.1c0.31,0.38 0.6,0.78 0.88,1.18a14.6,14.6 0 0 1 0.75,1.27a13.2,13.2 0 0 1 0.62,1.32a14.25,14.25 0 0 1 0.5,1.38c0.14,0.47 0.26,1 0.36,1.43a14.51,14.51 0 0 1 0.22,1.45a14.66,14.66 0 0 1 0.07,1.48a14.46,14.46 0 0 1 -0.29,2.93c-0.1,0.48 -0.22,1 -0.36,1.42a13.53,13.53 0 0 1 -0.5,1.39a13.2,13.2 0 0 1 -0.62,1.32c-0.23,0.43 -0.48,0.86 -0.75,1.27s-0.57,0.8 -0.88,1.18a14.67,14.67 0 0 1 -1,1.1c-0.34,0.34 -0.71,0.68 -1.09,1a14.5,14.5 0 0 1 -1.19,0.87q-0.61,0.4 -1.26,0.75c-0.43,0.23 -0.88,0.44 -1.33,0.63s-0.91,0.35 -1.38,0.5s-0.95,0.26 -1.43,0.36s-1,0.17 -1.45,0.22a14.66,14.66 0 0 1 -1.53,0.07z"/>
 </g>
</svg>